<svg style="position: absolute; width: 0; height: 0; overflow: hidden;" version="1.1" xmlns="http://www.w3.org/2000/svg" xmlns:xlink="http://www.w3.org/1999/xlink">
<defs>
<symbol id="icon-mastodon" viewBox="0 0 94.023018 100.80365">
<path d="M72.57077 49.00625c-3.9125 0-7.085-3.1825-7.085-7.095 0-3.91125 3.1725-7.09375 7.085-7.09375 3.92125 0 7.09375 3.1825 7.09375 7.09375 0 3.9125-3.1725 7.095-7.09375 7.095m-25.55875 0c-3.9225 0-7.095-3.1825-7.095-7.095 0-3.91125 3.1725-7.09375 7.095-7.09375 3.91125 0 7.09375 3.1825 7.09375 7.09375 0 3.9125-3.1825 7.095-7.09375 7.095m-25.57 0c-3.91125 0-7.08375-3.1825-7.08375-7.095 0-3.91125 3.1725-7.09375 7.08375-7.09375 3.92125 0 7.09375 3.1825 7.09375 7.09375 0 3.9125-3.1725 7.095-7.09375 7.095m72.5775-15.905c0-21.86625-14.32375-28.27375-14.32375-28.27375-7.23-3.31875-19.63-4.7125-32.5175-4.8275h-.3125c-12.88875.115-25.28875 1.50875-32.5075 4.8275 0 0-14.32375 6.4075-14.32375 28.27375 0 5.00375-.105 10.995.05125 17.34C.60577 71.83 4.00702 92.905 23.78327 98.1375c9.1125 2.4125 16.945 2.9125 23.24875 2.56875 11.4225-.63375 17.84-4.07625 17.84-4.07625l-.37375-8.3025s-8.16625 2.58-17.34125 2.2675c-9.09125-.3125-18.6825-.9775-20.16-12.13875-.135-.97875-.1975-2.02875-.1975-3.13125 0 0 8.915 2.185 20.2325 2.69375 6.9075.3225 13.39875-.39375 19.98375-1.185 12.6275-1.50875 23.62375-9.29 25.0075-16.405 2.17375-11.1925 1.99625-27.3275 1.99625-27.3275"></path>
</symbol>
<symbol id="icon-hackerspaces" viewBox="7 3 10 23">
<path d="M 11 1 L 11 2 L 11 3 L 11 4 L 11 5 L 10 5 L 10 6 L 10 7 L 9 7 L 9 8 L 10 8 L 10 9 L 11 9 L 11 10 L 12 10 L 12 9 L 13 9 L 13 8 L 14 8 L 14 7 L 13 7 L 13 6 L 13 5 L 12 5 L 12 4 L 12 3 L 12 2 L 12 1 L 11 1 z M 13 9 L 13 10 L 12 10 L 12 11 L 12 12 L 11 12 L 11 11 L 11 10 L 10 10 L 10 9 L 9 9 L 8 9 L 8 10 L 8 11 L 7 11 L 6 11 L 6 10 L 6 9 L 5 9 L 5 8 L 5 7 L 5 6 L 5 5 L 4 5 L 4 6 L 4 7 L 4 8 L 4 9 L 3 9 L 3 10 L 3 11 L 3 12 L 3 13 L 3 14 L 3 15 L 4 15 L 4 16 L 4 17 L 5 17 L 5 16 L 5 15 L 6 15 L 6 14 L 7 14 L 7 15 L 8 15 L 8 16 L 9 16 L 9 17 L 9 18 L 10 18 L 10 19 L 11 19 L 11 20 L 11 21 L 12 21 L 12 20 L 12 19 L 13 19 L 13 18 L 14 18 L 14 17 L 14 16 L 15 16 L 15 15 L 16 15 L 16 14 L 17 14 L 17 15 L 18 15 L 18 16 L 18 17 L 19 17 L 19 16 L 19 15 L 20 15 L 20 14 L 20 13 L 20 12 L 20 11 L 20 10 L 20 9 L 19 9 L 19 8 L 19 7 L 19 6 L 19 5 L 18 5 L 18 6 L 18 7 L 18 8 L 18 9 L 17 9 L 17 10 L 17 11 L 16 11 L 15 11 L 15 10 L 15 9 L 14 9 L 13 9 z M 4 10 L 5 10 L 5 11 L 4 11 L 4 10 z M 18 10 L 19 10 L 19 11 L 18 11 L 18 10 z M 4 13 L 5 13 L 5 14 L 4 14 L 4 13 z M 9 13 L 10 13 L 10 14 L 10 15 L 9 15 L 9 14 L 9 13 z M 13 13 L 14 13 L 14 14 L 14 15 L 13 15 L 13 14 L 13 13 z M 18 13 L 19 13 L 19 14 L 18 14 L 18 13 z M 10 16 L 11 16 L 11 17 L 10 17 L 10 16 z M 12 16 L 13 16 L 13 17 L 12 17 L 12 16 z M 4 19 L 4 20 L 5 20 L 5 19 L 4 19 z M 18 19 L 18 20 L 19 20 L 19 19 L 18 19 z M 4 21 L 4 22 L 5 22 L 5 21 L 4 21 z M 18 21 L 18 22 L 19 22 L 19 21 L 18 21 z M 4 23 L 4 24 L 5 24 L 5 23 L 4 23 z M 11 23 L 11 24 L 12 24 L 12 23 L 11 23 z M 18 23 L 18 24 L 19 24 L 19 23 L 18 23 z M 11 25 L 11 26 L 12 26 L 12 25 L 11 25 z "></path>
</symbol>
</defs>
</svg>
